<!-- <svg xmlns="http://www.w3.org/2000/svg" width="190" height="40" viewBox="0 0 190 40"><g fill="none" fill-rule="evenodd"><path fill="#FFF" fill-rule="nonzero" d="M56 30.7038 56 10.3402 64.4915 10.3402C66.0161 10.3402 67.2921 10.5556 68.3196 10.9865 69.3537 11.4174 70.1293 12.0206 70.6463 12.7962 71.17 13.5717 71.4318 14.4699 71.4318 15.4908 71.4318 16.2663 71.2694 16.959 70.9446 17.5689 70.6198 18.1721 70.1723 18.6726 69.6023 19.0703 69.0322 19.468 68.3726 19.7464 67.6236 19.9055L67.6236 20.1044C68.4455 20.1442 69.2045 20.3662 69.9006 20.7706 70.6032 21.175 71.1667 21.7384 71.5909 22.4609 72.0152 23.1768 72.2273 24.0253 72.2273 25.0064 72.2273 26.1001 71.9489 27.0779 71.392 27.9396 70.8352 28.7947 70.0298 29.4709 68.9759 29.968 67.9219 30.4586 66.6425 30.7038 65.1378 30.7038L56 30.7038ZM60.9219 26.7365 63.9645 26.7365C65.0317 26.7365 65.8172 26.5343 66.321 26.13 66.8314 25.7256 67.0866 25.1622 67.0866 24.4396 67.0866 23.916 66.964 23.4652 66.7188 23.0874 66.4735 22.7029 66.1255 22.4079 65.6747 22.2024 65.224 21.9903 64.6837 21.8842 64.054 21.8842L60.9219 21.8842 60.9219 26.7365ZM60.9219 18.7124 63.6463 18.7124C64.1832 18.7124 64.6605 18.6229 65.0781 18.4439 65.4957 18.2649 65.8205 18.0064 66.0526 17.6683 66.2912 17.3303 66.4105 16.9226 66.4105 16.4453 66.4105 15.7625 66.1686 15.2256 65.6847 14.8345 65.2008 14.4434 64.5478 14.2479 63.7259 14.2479L60.9219 14.2479 60.9219 18.7124ZM73.4737 30.7038 73.4737 15.4311 78.1968 15.4311 78.1968 18.2152 78.3559 18.2152C78.6343 17.2076 79.0883 16.4586 79.7181 15.968 80.3478 15.4709 81.0803 15.2223 81.9155 15.2223 82.1409 15.2223 82.3729 15.2389 82.6115 15.272 82.8502 15.2985 83.0722 15.3416 83.2777 15.4013L83.2777 19.6271C83.0457 19.5476 82.7408 19.4846 82.363 19.4382 81.9917 19.3918 81.6603 19.3686 81.3686 19.3686 80.7919 19.3686 80.2716 19.4979 79.8076 19.7564 79.3502 20.0083 78.9889 20.3629 78.7237 20.8203 78.4652 21.2711 78.336 21.8014 78.336 22.4112L78.336 30.7038 73.4737 30.7038ZM87.8701 30.9624C86.8957 30.9624 86.0306 30.8 85.2749 30.4751 84.5259 30.1437 83.9326 29.6465 83.4951 28.9837 83.0642 28.3142 82.8488 27.4756 82.8488 26.468 82.8488 25.6196 82.9979 24.9036 83.2962 24.3203 83.5945 23.737 84.0055 23.263 84.5292 22.8984 85.0529 22.5339 85.6561 22.2588 86.3388 22.0732 87.0216 21.8809 87.7508 21.7517 88.5263 21.6854 89.3947 21.6058 90.094 21.523 90.6243 21.4368 91.1546 21.344 91.5391 21.2147 91.7778 21.049 92.023 20.8767 92.1457 20.6347 92.1457 20.3232L92.1457 20.2734C92.1457 19.763 91.97 19.3686 91.6187 19.0902 91.2673 18.8118 90.7934 18.6726 90.1968 18.6726 89.5538 18.6726 89.0368 18.8118 88.6457 19.0902 88.2546 19.3686 88.006 19.7531 87.8999 20.2436L83.4155 20.0845C83.5481 19.1565 83.8895 18.3279 84.4397 17.5987 84.9965 16.8629 85.7588 16.2862 86.7266 15.8686 87.7011 15.4444 88.871 15.2322 90.2366 15.2322 91.211 15.2322 92.1092 15.3482 92.9312 15.5803 93.7531 15.8056 94.469 16.1371 95.0789 16.5746 95.6887 17.0054 96.159 17.5357 96.491 18.1655 96.829 18.7952 96.998 19.5144 96.998 20.3232L96.998 30.7038 92.4241 30.7038 92.4241 28.576 92.3047 28.576C92.033 29.093 91.685 29.5305 91.2607 29.8885 90.8431 30.2465 90.3493 30.5149 89.7792 30.6939 89.2157 30.8729 88.5794 30.9624 87.8701 30.9624ZM89.3715 27.7805C89.8952 27.7805 90.3658 27.6745 90.7834 27.4624 91.2077 27.2502 91.5457 26.9586 91.7976 26.5874 92.0495 26.2095 92.1755 25.772 92.1755 25.2749L92.1755 23.8232C92.0363 23.8961 91.8672 23.9624 91.6684 24.022 91.4761 24.0817 91.264 24.138 91.032 24.1911 90.8 24.2441 90.5614 24.2905 90.3161 24.3303 90.0708 24.37 89.8355 24.4065 89.6101 24.4396 89.1528 24.5125 88.7617 24.6252 88.4368 24.7777 88.1187 24.9302 87.8734 25.129 87.7011 25.3743 87.5353 25.6129 87.4525 25.898 87.4525 26.2294 87.4525 26.7332 87.6315 27.1177 87.9894 27.3828 88.354 27.648 88.8147 27.7805 89.3715 27.7805ZM98.851 30.7038 98.851 15.4311 103.713 15.4311 103.713 30.7038 98.851 30.7038ZM101.287 13.6513C100.604 13.6513 100.018 13.4259 99.527 12.9751 99.037 12.5178 98.791 11.9676 98.791 11.3246 98.791 10.6882 99.037 10.1447 99.527 9.6939 100.018 9.2365 100.604 9.0078 101.287 9.0078 101.976 9.0078 102.563 9.2365 103.047 9.6939 103.537 10.1447 103.783 10.6882 103.783 11.3246 103.783 11.9676 103.537 12.5178 103.047 12.9751 102.563 13.4259 101.976 13.6513 101.287 13.6513ZM110.55 21.9936 110.55 30.7038 105.688 30.7038 105.688 15.4311 110.312 15.4311 110.312 18.2351 110.481 18.2351C110.819 17.3004 111.395 16.5679 112.211 16.0376 113.026 15.5007 113.997 15.2322 115.124 15.2322 116.198 15.2322 117.129 15.4742 117.918 15.9581 118.714 16.4354 119.33 17.1049 119.768 17.9666 120.212 18.8217 120.43 19.8227 120.424121 20.9695L120.424121 30.7038 115.562 30.7038 115.562 21.924C115.568 21.0755 115.353 20.4126 114.915 19.9354 114.484 19.4581 113.884 19.2195 113.116 19.2195 112.605 19.2195 112.154 19.3322 111.763 19.5575 111.379 19.7763 111.08 20.0911 110.868 20.5021 110.663 20.9131 110.557 21.4103 110.55 21.9936Z"/><polygon fill="#FFF" fill-rule="nonzero" points="125.168 30.704 121.19 15.431 126.073 15.431 128.131 25.215 128.26 25.215 130.467 15.431 135.23 15.431 137.497 25.146 137.627 25.146 139.625 15.431 144.507 15.431 140.52 30.704 135.32 30.704 132.933 21.805 132.764 21.805 130.378 30.704"/><path fill="#FFF" fill-rule="nonzero" d="M149.644,30.9624 C148.67,30.9624 147.805,30.8 147.049,30.4751 C146.3,30.1437 145.706,29.6465 145.269,28.9837 C144.838,28.3142 144.623,27.4756 144.623,26.468 C144.623,25.6196 144.772,24.9036 145.07,24.3203 C145.368,23.737 145.779,23.263 146.303,22.8984 C146.827,22.5339 147.43,22.2588 148.113,22.0732 C148.796,21.8809 149.525,21.7517 150.3,21.6854 C151.169,21.6058 151.868,21.523 152.398,21.4368 C152.929,21.344 153.313,21.2147 153.552,21.049 C153.797,20.8767 153.92,20.6347 153.92,20.3232 L153.92,20.2734 C153.92,19.763 153.744,19.3686 153.393,19.0902 C153.041,18.8118 152.567,18.6726 151.971,18.6726 C151.328,18.6726 150.811,18.8118 150.42,19.0902 C150.028,19.3686 149.78,19.7531 149.674,20.2436 L145.189,20.0845 C145.322,19.1565 145.663,18.3279 146.214,17.5987 C146.77,16.8629 147.533,16.2862 148.501,15.8686 C149.475,15.4444 150.645,15.2322 152.01,15.2322 C152.985,15.2322 153.883,15.3482 154.705,15.5803 C155.527,15.8056 156.243,16.1371 156.853,16.5746 C157.463,17.0054 157.933,17.5357 158.265,18.1655 C158.603,18.7952 158.772,19.5144 158.772,20.3232 L158.772,30.7038 L154.198,30.7038 L154.198,28.576 L154.079,28.576 C153.807,29.093 153.459,29.5305 153.035,29.8885 C152.617,30.2465 152.123,30.5149 151.553,30.6939 C150.99,30.8729 150.353,30.9624 149.644,30.9624 Z M151.145,27.7805 C151.669,27.7805 152.14,27.6745 152.557,27.4624 C152.982,27.2502 153.32,26.9586 153.572,26.5874 C153.823,26.2095 153.949,25.772 153.949,25.2749 L153.949,23.8232 C153.81,23.8961 153.641,23.9624 153.442,24.022 C153.25,24.0817 153.038,24.138 152.806,24.1911 C152.574,24.2441 152.335,24.2905 152.09,24.3303 C151.845,24.37 151.609,24.4065 151.384,24.4396 C150.927,24.5125 150.536,24.6252 150.211,24.7777 C149.893,24.9302 149.647,25.129 149.475,25.3743 C149.309,25.6129 149.226,25.898 149.226,26.2294 C149.226,26.7332 149.405,27.1177 149.763,27.3828 C150.128,27.648 150.589,27.7805 151.145,27.7805 Z"/><polygon fill="#FFF" fill-rule="nonzero" points="174.893 15.431 169.653 30.704 164.085 30.704 158.855 15.431 163.976 15.431 166.79 25.951 166.949 25.951 169.773 15.431"/><path fill="#FFF" fill-rule="nonzero" d="M182.285,30.9922 C180.687,30.9922 179.308,30.6773 178.148,30.0476 C176.995,29.4112 176.107,28.5064 175.484,27.3331 C174.867,26.1532 174.559,24.7512 174.559,23.1271 C174.559,21.5495 174.87,20.1707 175.493,18.9908 C176.117,17.8042 176.995,16.8828 178.128,16.2266 C179.262,15.5637 180.598,15.2322 182.136,15.2322 C183.223,15.2322 184.217,15.4013 185.118,15.7393 C186.02,16.0774 186.799,16.5779 187.455,17.2408 C188.111,17.9036 188.622,18.7223 188.986,19.6967 C189.351,20.6645 189.533,21.7749 189.533,23.0277 L189.533,24.2408 L176.259,24.2408 L176.259,21.4169 L185.009,21.4169 C185.002,20.8999 184.88,20.4392 184.641,20.0348 C184.403,19.6304 184.074,19.3156 183.657,19.0902 C183.246,18.8582 182.772,18.7422 182.235,18.7422 C181.691,18.7422 181.204,18.8648 180.773,19.1101 C180.342,19.3487 180.001,19.6768 179.749,20.0945 C179.497,20.5054 179.365,20.9728 179.351,21.4965 L179.351,24.37 C179.351,24.9931 179.474,25.54 179.719,26.0107 C179.965,26.4747 180.313,26.8359 180.763,27.0945 C181.214,27.353 181.751,27.4822 182.374,27.4822 C182.805,27.4822 183.196,27.4226 183.547,27.3033 C183.899,27.184 184.2,27.0083 184.452,26.7763 C184.704,26.5443 184.893,26.2592 185.019,25.9212 L189.484,26.0504 C189.298,27.0514 188.89,27.9231 188.261,28.6655 C187.637,29.4013 186.819,29.9747 185.805,30.3857 C184.79,30.79 183.617,30.9922 182.285,30.9922 Z"/><polygon fill="#AC6AFF" fill-rule="nonzero" points="35.213 11.501 35.206 6.288 25.586 0 25.586 4.022 31.931 8.2 31.936 11.402 28.988 13.398 26.977 11.931 26.977 9.446 23.7 7.204 23.7 11.727 18.505 14.915 18.495 23.335 14.822 25.403 12.937 23.926 12.937 21.488 15.169 19.959 15.169 19.939 15.169 16.166 11.152 18.854 8.081 16.856 5.276 18.693 9.659 21.694 9.659 23.536 6.5 25.674 3.277 23.492 3.277 16.23 8.062 12.991 8.066 9.875 14.203 13.827 19.361 10.394 16.216 8.559 14.159 9.947 9.677 6.983 14.731 4.036 19.11 6.603 19.11 2.775 14.736 .211 4.794 6.008 4.787 11.223 0 14.465 0 25.257 4.787 28.499 4.794 33.714 14.414 40 14.414 35.981 8.069 31.803 8.064 28.601 11.012 26.605 13.023 28.072 13.023 30.557 16.3 32.798 16.3 28.275 21.569 25.088 21.628 16.667 25.178 14.599 27.063 16.076 27.063 18.514 24.831 20.043 24.831 20.063 24.831 23.837 28.848 21.148 31.919 23.146 34.724 21.309 30.34 18.306 30.34 16.466 33.5 14.329 36.723 16.511 36.723 23.772 31.939 27.012 31.934 30.127 25.797 26.173 20.639 29.584 23.784 31.416 25.841 30.055 30.323 33.019 25.269 35.966 20.89 33.399 20.89 37.225 25.264 39.789 35.206 33.995 35.213 28.779 40 25.537 40 14.743"/></g></svg> -->
<svg version="1.1" xmlns="http://www.w3.org/2000/svg" width="2515" height="925">
<path d="M0 0 C0.79664063 0.69351563 1.59328125 1.38703125 2.4140625 2.1015625 C3.82558594 3.29652344 3.82558594 3.29652344 5.265625 4.515625 C36.28443483 31.36290489 53.04289845 72.7811119 56.24853516 113.10009766 C56.59080286 119.30635 56.658788 125.51257269 56.6640625 131.7265625 C56.66473724 132.44744049 56.66541199 133.16831848 56.66610718 133.91104126 C56.60109385 178.01499232 45.47137536 220.51405644 17.4140625 255.1015625 C16.74503906 255.9265625 16.07601563 256.7515625 15.38671875 257.6015625 C10.33603014 263.55083988 4.57936678 268.34327787 -1.5859375 273.1015625 C-2.81376953 274.08769531 -2.81376953 274.08769531 -4.06640625 275.09375 C-24.79941642 291.1015625 -24.79941642 291.1015625 -33.5859375 291.1015625 C-21.16472572 308.22777874 -8.5980869 322.85986191 9.9921875 333.5078125 C10.79140625 334.03375 11.590625 334.5596875 12.4140625 335.1015625 C12.4140625 335.7615625 12.4140625 336.4215625 12.4140625 337.1015625 C7.8162961 339.2971358 3.20840084 341.46914575 -1.41040039 343.62011719 C-2.9798044 344.35495952 -4.54625957 345.09613443 -6.10961914 345.84375 C-8.35857247 346.91787696 -10.61717854 347.96871695 -12.87890625 349.015625 C-13.57493454 349.35405426 -14.27096283 349.69248352 -14.98808289 350.04116821 C-18.11260806 351.46293403 -19.97699869 352.25296882 -23.36767578 351.40991211 C-24.09970215 350.97815674 -24.83172852 350.54640137 -25.5859375 350.1015625 C-27.16955078 349.18697266 -27.16955078 349.18697266 -28.78515625 348.25390625 C-40.68207001 340.81175406 -50.02452506 332.27059394 -58.5859375 321.1015625 C-59.10075684 320.43511719 -59.61557617 319.76867187 -60.14599609 319.08203125 C-61.82170196 316.90718937 -63.48719683 314.72496979 -65.1484375 312.5390625 C-65.68581543 311.83579834 -66.22319336 311.13253418 -66.77685547 310.40795898 C-67.2720166 309.74868408 -67.76717773 309.08940918 -68.27734375 308.41015625 C-68.72279541 307.82032959 -69.16824707 307.23050293 -69.62719727 306.62280273 C-70.5859375 305.1015625 -70.5859375 305.1015625 -70.5859375 303.1015625 C-71.41520752 303.26237305 -72.24447754 303.42318359 -73.09887695 303.58886719 C-76.87618878 304.14423755 -80.57058964 304.28064158 -84.37890625 304.3046875 C-85.11833969 304.31170181 -85.85777313 304.31871613 -86.61961365 304.32594299 C-89.0042837 304.34341751 -91.3887057 304.34979878 -93.7734375 304.3515625 C-94.58617126 304.35223724 -95.39890503 304.35291199 -96.23626709 304.35360718 C-108.26237011 304.33771025 -119.84751072 303.94396445 -131.5859375 301.1015625 C-132.32859863 300.92995605 -133.07125977 300.75834961 -133.83642578 300.58154297 C-155.35929631 295.50372469 -176.04301604 285.90698777 -192.5859375 271.1015625 C-193.56046875 270.27011719 -194.535 269.43867187 -195.5390625 268.58203125 C-226.93069003 241.3924326 -241.61281126 198.76971638 -245.11889648 158.37402344 C-248.63174698 108.83406088 -241.25017135 55.69500622 -207.85546875 16.875 C-156.74469111 -40.8776485 -59.86779353 -50.25691029 0 0 Z M-167.98828125 39.66455078 C-194.98045877 71.02828749 -199.59684214 114.31753649 -197.5859375 154.1015625 C-196.3744827 168.42776335 -193.36585373 182.54473114 -188.5859375 196.1015625 C-188.35648438 196.75833984 -188.12703125 197.41511719 -187.890625 198.09179688 C-178.98709853 223.06569941 -160.7202358 243.77984176 -137.1875 255.84375 C-124.60371435 261.63171548 -110.01237882 265.3574853 -96.0859375 265.1640625 C-94.80203125 265.15052734 -94.80203125 265.15052734 -93.4921875 265.13671875 C-92.863125 265.12511719 -92.2340625 265.11351562 -91.5859375 265.1015625 C-101.22734178 249.72413288 -112.84041741 235.82557711 -127.5859375 225.1015625 C-128.2459375 225.1015625 -128.9059375 225.1015625 -129.5859375 225.1015625 C-129.5859375 224.4415625 -129.5859375 223.7815625 -129.5859375 223.1015625 C-129.01270752 222.99996826 -128.43947754 222.89837402 -127.84887695 222.79370117 C-119.53638591 221.23505759 -111.51446974 218.8432833 -103.42382812 216.40429688 C-102.35712891 216.09427734 -101.29042969 215.78425781 -100.19140625 215.46484375 C-99.23387451 215.17907471 -98.27634277 214.89330566 -97.28979492 214.59887695 C-94.33114526 214.05469913 -92.45192336 214.23580228 -89.5859375 215.1015625 C-74.92158187 225.81874247 -64.43517478 242.11255335 -54.5859375 257.1015625 C-44.3344441 253.29858914 -35.74021451 246.22096949 -27.5859375 239.1015625 C-26.88726563 238.49957031 -26.18859375 237.89757812 -25.46875 237.27734375 C-0.74965255 214.39480575 8.20152964 176.40046186 9.53808594 144.10473633 C10.56895299 104.76315882 3.62704788 65.24135683 -24.15234375 35.53955078 C-43.04491673 16.5890646 -67.92912427 8.05691204 -94.3359375 7.7890625 C-123.05733829 7.90836978 -148.63799992 18.09761118 -167.98828125 39.66455078 Z " fill="#FEFEFE" transform="translate(1110.5859375,255.8984375)"/>
<path d="M0 0 C0.75406128 -0.00100708 1.50812256 -0.00201416 2.28503418 -0.00305176 C13.93706719 0.00746173 25.18424095 0.52290776 36.5625 3.25 C38.45548828 3.70246094 38.45548828 3.70246094 40.38671875 4.1640625 C68.653483 11.68149386 90.28726697 27.68455931 105.09765625 52.86328125 C107.94807968 57.84425901 110.4352879 62.91434092 112.5625 68.25 C108.03364157 72.88726195 103.41104397 77.31002361 98.49609375 81.53515625 C96.60755403 83.21004299 94.83094352 84.94947587 93.0625 86.75 C83.26474719 96.68258427 83.26474719 96.68258427 78.5625 98.25 C78.05460937 97.06664062 77.54671875 95.88328125 77.0234375 94.6640625 C68.69726116 75.4585659 58.67597154 56.09611178 38.33984375 47.5703125 C25.11052143 42.75773933 11.77667566 41.87202771 -2.1875 41.8125 C-3.21756165 41.80310394 -3.21756165 41.80310394 -4.26843262 41.79351807 C-23.29510799 41.68381656 -44.12255317 44.60289045 -58.4375 58.25 C-59.08332031 58.85585938 -59.72914062 59.46171875 -60.39453125 60.0859375 C-67.9201103 67.84916641 -70.10588205 76.77800761 -69.97412109 87.3984375 C-69.56062825 95.92087119 -66.51515778 101.54578763 -60.5 107.4375 C-42.66503709 121.97940604 -17.46890978 126.93648158 4.29614258 132.53173828 C86.42070006 153.66634358 86.42070006 153.66634358 109.5625 188.25 C122.40257475 210.58743875 124.97453078 237.28023373 118.59765625 262.14453125 C114.57413634 276.68459027 107.75544987 289.09214093 97.5625 300.25 C96.86511719 301.02859375 96.16773438 301.8071875 95.44921875 302.609375 C74.93057555 324.36588881 41.73688854 335.90035701 12.38793945 337.35800171 C10.19831087 337.41272985 8.01058825 337.44066431 5.8203125 337.453125 C5.01246307 337.45882507 4.20461365 337.46452515 3.37228394 337.47039795 C1.66975178 337.4797801 -0.03279798 337.48635465 -1.73535156 337.49023438 C-4.27183034 337.49984589 -6.80746376 337.53089519 -9.34375 337.5625 C-24.36191007 337.660578 -39.24038252 336.08509845 -53.625 331.5625 C-54.44540771 331.30976318 -55.26581543 331.05702637 -56.11108398 330.79663086 C-64.34227709 328.14534037 -71.92936605 324.51160484 -79.4375 320.25 C-80.41976563 319.69570313 -81.40203125 319.14140625 -82.4140625 318.5703125 C-107.15603503 303.66808697 -121.76726863 281.36753216 -130.4375 254.25 C-130.4375 253.59 -130.4375 252.93 -130.4375 252.25 C-128.62890625 250.578125 -128.62890625 250.578125 -126 248.5 C-125.00613281 247.70464844 -124.01226563 246.90929687 -122.98828125 246.08984375 C-122.42834473 245.64366699 -121.8684082 245.19749023 -121.29150391 244.73779297 C-117.72955468 241.87941549 -114.21161104 238.96728707 -110.6875 236.0625 C-109.62511108 235.18996582 -109.62511108 235.18996582 -108.54125977 234.29980469 C-107.50763306 233.44950684 -107.50763306 233.44950684 -106.453125 232.58203125 C-105.78216797 232.03111816 -105.11121094 231.48020508 -104.41992188 230.91259766 C-103.08516162 229.79317434 -101.76878104 228.65150649 -100.47070312 227.48974609 C-99.85646484 226.94012207 -99.24222656 226.39049805 -98.609375 225.82421875 C-98.06893555 225.32881592 -97.52849609 224.83341309 -96.97167969 224.32299805 C-95.4375 223.25 -95.4375 223.25 -92.4375 223.25 C-92.06238281 224.48234375 -91.68726563 225.7146875 -91.30078125 226.984375 C-83.21365418 253.2881752 -72.61804503 272.96116015 -47.53369141 286.25927734 C-34.17655233 293.01426072 -19.40973501 296.73755743 -4.4375 297.25 C-3.426875 297.28996094 -2.41625 297.32992188 -1.375 297.37109375 C20.67906963 297.82171777 41.15482896 291.86744601 57.37890625 276.5 C68.0052445 265.5504994 73.00395663 252.98195075 72.92602539 237.83178711 C72.65243545 226.60730387 69.22839696 216.58492069 61.5625 208.25 C39.2323145 187.57902333 4.93752354 182.63136967 -23.54931641 175.63769531 C-48.18195307 169.54133561 -68.57683617 161.2785605 -88.4375 145.25 C-89.04142578 144.76805176 -89.64535156 144.28610352 -90.26757812 143.78955078 C-104.88361007 131.76194016 -114.22211544 112.9027468 -116.4375 94.25 C-118.13157449 74.15168848 -113.684981 55.27399665 -100.9375 39.3125 C-99.45548792 37.60918075 -97.95707597 35.91989374 -96.4375 34.25 C-95.88578125 33.61707031 -95.3340625 32.98414063 -94.765625 32.33203125 C-71.2871043 6.9357106 -32.88362632 0.03050929 0 0 Z " fill="#FEFEFE" transform="translate(1350.4375,222.75)"/>
<path d="M0 0 C816.42 0 1632.84 0 2474 0 C2474 173.25 2474 346.5 2474 525 C1657.58 525 841.16 525 0 525 C0 351.75 0 178.5 0 0 Z M5 5 C5 174.95 5 344.9 5 520 C818.12 520 1631.24 520 2469 520 C2469 350.05 2469 180.1 2469 5 C1655.88 5 842.76 5 5 5 Z " fill="#2F528F" transform="translate(0,135)"/>
<path d="M0 0 C1.51881943 1.45983615 3.02149635 2.93684648 4.5 4.4375 C5.02335937 4.95054687 5.54671875 5.46359375 6.0859375 5.9921875 C16.61067559 17.28236109 16.66614096 36.02950871 16.59765625 50.45214844 C16.59619598 51.62251648 16.59473572 52.79288452 16.5932312 53.99871826 C16.58944048 56.5276914 16.58334016 59.05666193 16.57516479 61.58562469 C16.56233874 65.59731179 16.55572376 69.60896424 16.55102539 73.6206665 C16.53903001 82.8646709 16.51701192 92.10864612 16.49479675 101.35263062 C16.47453758 109.82120472 16.45648151 118.28976868 16.44658184 126.75836205 C16.4408551 131.37048975 16.42730413 135.98255665 16.41235352 140.59466553 C16.40871741 143.0315344 16.40536613 145.46840372 16.40234375 147.90527344 C16.39459427 149.5251416 16.39459427 149.5251416 16.38668823 151.17773438 C15.87144297 165.20808363 15.87144297 165.20808363 19.5 178.4375 C23.96017456 180.83913246 27.42518764 181.59169794 32.5 182.4375 C32.5 191.0175 32.5 199.5975 32.5 208.4375 C20.50513463 212.93557452 7.04672785 216.61730186 -5.4765625 211.51953125 C-13.15012679 207.41610015 -16.64359282 202.39443734 -19.46875 194.21484375 C-21.33487623 187.37944955 -22.46834501 180.44101155 -23.5 173.4375 C-24.91844009 174.99839026 -26.33467025 176.5612889 -27.75 178.125 C-28.53890625 178.99511719 -29.3278125 179.86523438 -30.140625 180.76171875 C-31.66706566 182.4928642 -33.15266482 184.26127544 -34.5859375 186.0703125 C-46.18642629 200.41703945 -65.23739771 211.49466997 -83.5 213.4375 C-104.22145282 214.85284374 -122.89738976 211.60091943 -139.12890625 197.71484375 C-153.87169539 183.55496555 -162.23307026 166.21796613 -162.79272461 145.59106445 C-162.98901876 124.83477543 -155.72309192 107.17255389 -141.26171875 92.10546875 C-123.42772359 74.97199058 -99.48498848 69.42969192 -75.7421875 66.22265625 C-74.95751099 66.11630356 -74.17283447 66.00995087 -73.36437988 65.90037537 C-69.40505887 65.36734929 -65.44454743 64.85159945 -61.47949219 64.36303711 C-49.05389283 62.78644814 -37.14066363 61.03470357 -27.5 52.4375 C-25.9840625 51.385625 -25.9840625 51.385625 -24.4375 50.3125 C-21.24303136 45.57232073 -22.45603414 40.856507 -23.5 35.4375 C-24.32768325 32.35617921 -25.33987269 29.40717371 -26.5 26.4375 C-26.83 25.4475 -27.16 24.4575 -27.5 23.4375 C-29.24867483 22.35318906 -29.24867483 22.35318906 -31.5 21.4375 C-32.386875 20.9425 -33.27375 20.4475 -34.1875 19.9375 C-42.56342356 16.14462895 -51.04605898 16.09345489 -60.08178711 16.12182617 C-62.16639467 16.12496819 -64.24955309 16.10152273 -66.33398438 16.07617188 C-82.42745006 15.99794537 -98.8439515 18.83348297 -111 30.25 C-116.10445086 35.88023121 -119.80828682 42.35603028 -122.5 49.4375 C-129.02829773 47.40522514 -134.79567258 44.3308909 -140.8125 41.125 C-141.92173828 40.55587891 -143.03097656 39.98675781 -144.17382812 39.40039062 C-145.22634766 38.83900391 -146.27886719 38.27761719 -147.36328125 37.69921875 C-148.80634644 36.94064575 -148.80634644 36.94064575 -150.27856445 36.16674805 C-152.5 34.4375 -152.5 34.4375 -153.40673828 31.94726562 C-153.54683206 28.17720266 -151.86794409 25.43848391 -150.0625 22.25 C-149.69560059 21.58798584 -149.32870117 20.92597168 -148.95068359 20.24389648 C-138.91197854 2.58066834 -123.84153102 -8.02579956 -104.41943359 -13.4375 C-101.12983843 -14.26739541 -97.83451392 -14.93083734 -94.5 -15.5625 C-92.73076172 -15.89894531 -92.73076172 -15.89894531 -90.92578125 -16.2421875 C-61.65386602 -20.78384491 -23.33941614 -20.47801061 0 0 Z M-30.25390625 81.79882812 C-41.87793041 89.63015843 -56.73078111 91.75054508 -70.24414062 94.34423828 C-89.83627543 98.13874454 -105.78889184 104.29691758 -117.5 121.4375 C-123.13825647 131.68319596 -124.19557789 143.29872612 -121.81640625 154.71875 C-118.43510015 164.70833484 -111.48729637 173.91718274 -101.94140625 178.7265625 C-89.50164248 183.86512762 -76.19113302 183.99080727 -63.5 179.4375 C-46.82799 172.4196606 -32.90055584 161.40272719 -25.81665039 144.27392578 C-20.42484015 129.55731245 -21.11494318 113.16067445 -21.3125 97.75 C-21.32759769 95.66862965 -21.34127696 93.5872485 -21.35351562 91.50585938 C-21.38606411 86.48279875 -21.43755556 81.46027423 -21.5 76.4375 C-24.18046336 76.4375 -28.02535343 80.19288059 -30.25390625 81.79882812 Z " fill="#FEFEFE" transform="translate(1823.5,342.5625)"/>
<path d="M0 0 C21.16609108 17.99117742 34.36652286 42.62819183 37.43798828 70.39013672 C38.41540228 83.23208848 38.47712745 96.51167032 36.65625 109.2578125 C-13.17375 109.2578125 -63.00375 109.2578125 -114.34375 109.2578125 C-110.80694395 142.14024036 -110.80694395 142.14024036 -92.34375 168.2578125 C-76.38167011 178.64667526 -58.80582217 183.42474618 -39.90625 180.1328125 C-25.22684761 176.92542275 -15.98929478 170.18210499 -7.84375 157.7578125 C-3.07000243 150.24200777 0.82979542 142.2860687 4.65625 134.2578125 C25.0697618 143.76443162 25.0697618 143.76443162 34.65625 149.2578125 C25.66998444 174.48633446 7.32416235 193.1871164 -16.5859375 204.6875 C-40.96742747 215.3307321 -68.95903313 215.183281 -93.63525391 205.7253418 C-118.14220683 195.76167161 -134.52049627 174.99598786 -144.56201172 151.19921875 C-158.53126793 116.50729951 -157.79207349 74.78279387 -143.30566406 40.44628906 C-138.68574505 29.93538702 -133.14693647 20.77269025 -125.34375 12.2578125 C-124.51101562 11.33226562 -123.67828125 10.40671875 -122.8203125 9.453125 C-91.18466025 -24.03799073 -36.35113952 -27.92030294 0 0 Z M-95.34375 27.2578125 C-108.08844308 42.21994778 -113.34375 59.75896388 -113.34375 79.2578125 C-76.38375 79.2578125 -39.42375 79.2578125 -1.34375 79.2578125 C-3.52128446 54.87709148 -3.52128446 54.87709148 -13.34375 33.2578125 C-13.74851562 32.61457031 -14.15328125 31.97132813 -14.5703125 31.30859375 C-22.48974167 20.49833 -39.14365162 14.72341281 -51.80078125 12.5546875 C-67.84005006 10.68220758 -83.90377302 15.91429401 -95.34375 27.2578125 Z " fill="#FEFEFE" transform="translate(2192.34375,343.7421875)"/>
<path d="M0 0 C0 27.39 0 54.78 0 83 C15.18 83 30.36 83 46 83 C46 93.56 46 104.12 46 115 C30.82 115 15.64 115 0 115 C0.08549938 133.50679242 0.17911955 152.01348572 0.28752708 170.52015686 C0.33760516 179.11351754 0.38404857 187.70686891 0.421875 196.30029297 C0.45486166 203.79210655 0.49472961 211.28384685 0.54279006 218.77557945 C0.5679888 222.74076379 0.58978948 226.70589992 0.60334396 230.67114258 C0.61622466 234.40742496 0.63834311 238.1435415 0.66738319 241.87973213 C0.68070002 243.89634624 0.68436882 245.91301692 0.68769836 247.92967224 C0.7703386 256.91822402 0.9888903 264.78666836 7 272 C11.13636745 274.20306527 15.10035269 274.31071384 19.6875 274.25 C20.39503418 274.24613281 21.10256836 274.24226563 21.83154297 274.23828125 C26.63236437 274.15945362 31.12684404 273.64934018 35.7890625 272.4375 C38 272 38 272 44 272 C44 282.23 44 292.46 44 303 C22.55799976 308.36050006 -3.2100752 312.8701975 -23.74609375 301.5703125 C-31.96361698 295.84510568 -35.6755298 288.88281806 -37.52202511 279.28721428 C-38.02003841 275.86218827 -38.12295371 272.62665562 -38.12025452 269.16629028 C-38.12110894 268.5037118 -38.12196337 267.84113333 -38.12284368 267.15847671 C-38.12448262 264.95214001 -38.11900326 262.7458804 -38.11352539 260.53955078 C-38.11324315 258.95247906 -38.11340197 257.36540721 -38.1139679 255.77833557 C-38.11425443 251.47922972 -38.10838091 247.18015185 -38.10139394 242.88105249 C-38.09513649 238.38472289 -38.09455471 233.88839262 -38.09336853 229.39205933 C-38.09026227 220.88179602 -38.08205838 212.37154559 -38.07201904 203.86128795 C-38.06083602 194.17088754 -38.05534193 184.48048652 -38.05032361 174.79008126 C-38.03987518 154.8600454 -38.02153845 134.93002718 -38 115 C-50.87 115 -63.74 115 -77 115 C-77 104.44 -77 93.88 -77 83 C-64.13 83 -51.26 83 -38 83 C-38.29583984 77.03679687 -38.29583984 77.03679687 -38.59765625 70.953125 C-38.70724922 67.75077798 -38.79932635 64.5489715 -38.87975311 61.34580994 C-38.96905788 57.97792805 -39.09704785 54.62307735 -39.2824707 51.25830078 C-40.44360371 29.63470966 -40.44360371 29.63470966 -36.43667603 23.6746521 C-32.5361577 19.81289137 -28.02159248 17.34229115 -23.08657837 15.02130127 C-20.30125477 13.65799061 -17.92607142 11.90602855 -15.47265625 10.01953125 C-14.72435547 9.47619141 -13.97605469 8.93285156 -13.20507812 8.37304688 C-11.71795999 7.28990431 -10.23099136 6.20655647 -8.74414062 5.12304688 C-8.01517578 4.59388672 -7.28621094 4.06472656 -6.53515625 3.51953125 C-5.899729 3.05651611 -5.26430176 2.59350098 -4.60961914 2.11645508 C-1.55827684 0 -1.55827684 0 0 0 Z " fill="#FEFEFE" transform="translate(1582,248)"/>
<path d="M0 0 C0.66 0 1.32 0 2 0 C2 27.39 2 54.78 2 83 C17.18 83 32.36 83 48 83 C48 93.56 48 104.12 48 115 C32.82 115 17.64 115 2 115 C2.0629432 133.60267247 2.1381804 152.20516356 2.23571491 170.80768394 C2.2806137 179.44583285 2.32004192 188.08394107 2.34643555 196.72216797 C2.36946365 204.25431252 2.40291517 211.78632768 2.44870156 219.31836951 C2.47256911 223.30376114 2.49134013 227.28902515 2.49761391 231.27448654 C2.50369422 235.03217862 2.52379921 238.78954442 2.55427551 242.54711533 C2.56714667 244.57049504 2.56549389 246.59395117 2.5632782 248.61737061 C2.60639906 261.08587857 2.60639906 261.08587857 8.5 271.5625 C12.85854061 274.06866085 16.66505655 274.1920195 21.5625 274.1875 C22.27833252 274.18814453 22.99416504 274.18878906 23.73168945 274.18945312 C28.60974843 274.14108477 33.14411451 273.65052844 37.88671875 272.4375 C40 272 40 272 45 272 C45 282.23 45 292.46 45 303 C24.82173006 309.72608998 0.35253779 311.5833019 -19.51171875 302.90234375 C-26.54907239 298.94802123 -31.9053245 292.68429609 -34.4921875 285.0546875 C-35.72811473 280.05393577 -36.1242421 275.27231007 -36.12025452 270.12832642 C-36.12110894 269.46166438 -36.12196337 268.79500235 -36.12284368 268.10813844 C-36.12448275 265.88798239 -36.11900304 263.66790293 -36.11352539 261.44775391 C-36.11324315 259.8508301 -36.11340197 258.25390616 -36.1139679 256.65698242 C-36.11425444 252.33101799 -36.10838074 248.00508138 -36.10139394 243.6791234 C-36.09513667 239.15476657 -36.09455472 234.63040908 -36.09336853 230.10604858 C-36.09026221 221.54266137 -36.08205825 212.97928694 -36.07201904 204.41590536 C-36.06083619 194.6650466 -36.05534198 184.91418722 -36.05032361 175.16332364 C-36.03987506 155.10887371 -36.02153826 135.0544413 -36 115 C-48.87 115 -61.74 115 -75 115 C-75 104.44 -75 93.88 -75 83 C-62.13 83 -49.26 83 -36 83 C-36.20882813 79.03613281 -36.41765625 75.07226562 -36.6328125 70.98828125 C-36.74888494 67.79147674 -36.84636445 64.59528099 -36.9315033 61.39756012 C-37.02600613 58.0368929 -37.1613871 54.69090604 -37.35791016 51.33374023 C-38.58784345 29.76971369 -38.58784345 29.76971369 -34.32925415 23.56622314 C-30.1734321 19.44668078 -25.38387969 16.6834969 -20.16870117 14.10018921 C-17.42218828 12.70687422 -15.0163872 10.98925837 -12.55859375 9.140625 C-11.18569112 8.17595051 -9.81205262 7.21232199 -8.4375 6.25 C-4.0249164 3.35536349 -4.0249164 3.35536349 0 0 Z " fill="#FEFEFE" transform="translate(1956,248)"/>
</svg>
