<svg version="1.1" xmlns="http://www.w3.org/2000/svg" width="2596" height="925">
<path d="M0 0 C39.72976417 -1.10792843 75.93882191 10.02732318 105.34521484 37.41333008 C136.04954376 66.79052911 148.99997988 108.58859645 150.29052734 150.19091797 C151.20766708 197.19700578 139.34232401 245.13178445 106.30224609 280.01123047 C101.52847845 284.92987848 96.71037394 289.1749542 91.06787109 293.06201172 C102.5723569 301.64039608 114.32139128 309.84465851 126.11816406 318.01464844 C131.71269189 321.8977564 137.28649397 325.81047987 142.86157227 329.72143555 C143.63605713 330.26437256 144.41054199 330.80730957 145.20849609 331.36669922 C145.88428711 331.84091309 146.56007813 332.31512695 147.25634766 332.80371094 C148.84720815 333.90873722 150.45620016 334.98756443 152.06787109 336.06201172 C150.77654866 339.62086041 149.25534127 342.43601519 146.98583984 345.46044922 C146.38320312 346.26998047 145.78056641 347.07951172 145.15966797 347.91357422 C144.53125 348.74630859 143.90283203 349.57904297 143.25537109 350.43701172 C142.01925679 352.09033075 140.7835725 353.74397138 139.54833984 355.39794922 C138.663479 356.5788916 138.663479 356.5788916 137.76074219 357.78369141 C135.48539141 360.8459316 133.27135578 363.94775337 131.06787109 367.06201172 C127.85815137 366.45017003 125.8288781 365.38276697 123.22412109 363.42919922 C122.48291016 362.878125 121.74169922 362.32705078 120.97802734 361.75927734 C120.18267578 361.15792969 119.38732422 360.55658203 118.56787109 359.93701172 C117.73126953 359.31246094 116.89466797 358.68791016 116.03271484 358.04443359 C113.37299099 356.05657739 110.7200615 354.05990442 108.06787109 352.06201172 C106.39109737 350.80378651 104.71401987 349.54596601 103.03662109 348.28857422 C100.54551793 346.42061383 98.05478216 344.55217778 95.56542969 342.68188477 C91.41058598 339.56150078 87.24999963 336.44928026 83.07568359 333.35498047 C82.26526611 332.75403564 81.45484863 332.15309082 80.61987305 331.53393555 C79.01380885 330.35309627 77.40041007 329.18216254 75.77954102 328.02172852 C72.18483501 325.44052107 68.78431471 322.87885637 65.61083984 319.78857422 C61.65621631 316.10080885 58.18775679 313.00485994 52.53564453 313.10839844 C47.42597014 313.81802572 42.50842263 315.12770206 37.53271484 316.46435547 C30.98691449 318.20331752 24.56195471 318.90866596 17.81787109 319.37451172 C16.81973389 319.44959961 15.82159668 319.5246875 14.79321289 319.60205078 C-26.16661425 322.37482107 -64.75504048 312.00420777 -95.99462891 284.74951172 C-122.67476596 260.128292 -138.23211754 226.90283237 -142.93212891 191.06201172 C-143.0263916 190.3665625 -143.1206543 189.67111328 -143.21777344 188.95458984 C-144.20592436 180.60391906 -144.17476515 172.20896656 -144.18212891 163.81201172 C-144.18313599 163.01443451 -144.18414307 162.2168573 -144.18518066 161.39511108 C-144.17411817 148.4098556 -143.45181212 135.83148388 -140.93212891 123.06201172 C-140.79291016 122.32611816 -140.65369141 121.59022461 -140.51025391 120.83203125 C-132.99356478 82.12630216 -111.87953112 46.82458801 -78.92089844 24.57397461 C-55.17422819 9.04627967 -28.38162045 0.91090872 0 0 Z M-68.93212891 63.06201172 C-69.59728516 63.64466797 -70.26244141 64.22732422 -70.94775391 64.82763672 C-91.79894396 84.11985929 -102.94618896 115.34923355 -104.93212891 143.06201172 C-105.12393747 148.47902697 -105.17777106 153.89188138 -105.18212891 159.31201172 C-105.18280365 160.06601257 -105.18347839 160.82001343 -105.18417358 161.59686279 C-105.1582763 179.85807885 -103.24560306 196.84172743 -96.93212891 214.06201172 C-96.56345703 215.08166016 -96.19478516 216.10130859 -95.81494141 217.15185547 C-90.6737541 230.35938837 -83.5023236 242.59816557 -73.93212891 253.06201172 C-73.16255859 253.91279297 -72.39298828 254.76357422 -71.60009766 255.64013672 C-54.10876914 274.06395932 -29.69469795 284.51721312 -4.37353516 285.39794922 C26.05610485 285.80177567 53.08132261 280.23032286 75.79931641 258.84350586 C101.41633752 233.87554307 110.77614524 199.99210253 111.41943359 164.94628906 C111.6533097 126.18619743 102.90452458 90.25053301 75.06787109 62.06201172 C56.26147138 43.22585504 31.97949823 34.87659336 5.69287109 34.81201172 C-23.37592726 34.8403222 -47.3747409 43.41024918 -68.93212891 63.06201172 Z " fill="#F1F1F1" transform="translate(1158.93212890625,245.93798828125)"/>
<path d="M0 0 C1.24394531 0.35191406 2.48789063 0.70382813 3.76953125 1.06640625 C16.18462003 4.77758333 27.17183894 10.5632811 37 19 C37.82242187 19.68964844 38.64484375 20.37929688 39.4921875 21.08984375 C50.56115536 30.66164119 60.50409941 42.91202813 65 57 C61.16880539 58.77548659 57.33467198 60.54453786 53.5 62.3125 C52.42234375 62.81201172 51.3446875 63.31152344 50.234375 63.82617188 C44.55270123 66.44182047 38.89408211 68.9041674 33 71 C32.5875 70.32195312 32.175 69.64390625 31.75 68.9453125 C20.72026467 51.16971226 8.32060163 38.42338126 -12.5703125 33.48828125 C-32.67320558 29.44831077 -53.636872 31.74422151 -71 43 C-79.33087667 49.24190309 -83.66786072 57.99337594 -86 68 C-86.29564604 71.2756877 -86.33416568 74.52488794 -86.3125 77.8125 C-86.30686035 78.70179199 -86.3012207 79.59108398 -86.29541016 80.50732422 C-86.07275871 92.51948017 -82.42630329 103.05684381 -73.625 111.625 C-60.49879662 122.21064789 -42.8909891 126.99990491 -27.01124573 131.64924622 C-13.31181977 135.66078626 0.09349967 139.8125291 13 146 C13.61069336 146.29084473 14.22138672 146.58168945 14.85058594 146.88134766 C36.64547877 157.45349716 51.87075281 173.11950487 60 196 C62.27979955 204.21437504 63.57325659 212.49180327 64 221 C64.04125 221.69867188 64.0825 222.39734375 64.125 223.1171875 C64.90987327 249.11611464 54.85574167 270.9872897 38.08984375 290.1875 C20.31632944 309.01145842 -5.21339932 314.52322823 -30 316 C-30.99 316.06058594 -31.98 316.12117188 -33 316.18359375 C-61.77663674 316.94797316 -92.91258457 309.26672631 -114.5 289.4375 C-116.36977676 287.65622255 -118.18552233 285.83922054 -120 284 C-120.66515625 283.33355469 -121.3303125 282.66710937 -122.015625 281.98046875 C-128.08949056 275.48252699 -138.05552835 263.31272496 -137.98486328 254.0065918 C-136.42663828 250.83181458 -133.53428061 249.92174288 -130.4453125 248.546875 C-129.78796112 248.24179016 -129.13060974 247.93670532 -128.45333862 247.62237549 C-127.06268611 246.98034559 -125.66878441 246.34531396 -124.27197266 245.71679688 C-122.13346082 244.75380997 -120.00578487 243.7696259 -117.87890625 242.78125 C-116.52662423 242.16018831 -115.1737773 241.54035485 -113.8203125 240.921875 C-112.8639238 240.48134796 -112.8639238 240.48134796 -111.88821411 240.03192139 C-109.06511136 238.76788816 -107.13237129 238 -104 238 C-103.61070313 238.79921875 -103.22140625 239.5984375 -102.8203125 240.421875 C-93.77396188 258.18107022 -81.2459067 270.72416086 -62 277 C-41.72352669 283.40446152 -16.88439253 281.79975489 2 272 C14.26460586 264.7282195 21.26418514 255.48664124 24.8125 241.625 C27.87135413 226.81736522 26.00660985 212.9004988 18 200 C3.42907316 179.59471847 -22.79040189 173.27319199 -45.46865845 166.28222656 C-62.19997414 161.10834993 -78.7448425 155.49179592 -93 145 C-93.91910156 144.32453125 -94.83820313 143.6490625 -95.78515625 142.953125 C-111.0204307 131.1337374 -120.16511757 115.81983342 -123.55859375 96.8828125 C-126.21947378 73.47648727 -123.27438212 50.27516344 -109 31 C-108.49082031 30.30777344 -107.98164062 29.61554688 -107.45703125 28.90234375 C-95.51263919 14.06770374 -77.01065511 4.93237858 -59 0 C-57.83984375 -0.3196875 -56.6796875 -0.639375 -55.484375 -0.96875 C-37.90818639 -5.00753377 -17.33098136 -5.10699924 0 0 Z " fill="#F1F1F1" transform="translate(1487,250)"/>
<path d="M0 0 C21.98302467 21.29352021 27.63962766 51.32715497 28.15234375 80.63671875 C28.26855951 94.33314709 28.26855951 94.33314709 28 98 C27 99 27 99 24.40940762 99.12304783 C23.24518308 99.12212604 22.08095854 99.12120424 20.88145447 99.12025452 C20.23539877 99.12110894 19.58934307 99.12196337 18.92370993 99.12284368 C16.74330183 99.12450024 14.56296945 99.11897429 12.38256836 99.11352539 C10.82579042 99.11324353 9.26901236 99.11340123 7.7122345 99.1139679 C3.47274796 99.11425592 -0.76671054 99.10835846 -5.00619054 99.10139394 C-9.4318142 99.09516115 -13.85743843 99.09455666 -18.2830658 99.09336853 C-26.66953978 99.09025499 -35.0560008 99.0820413 -43.44246906 99.07201904 C-52.98765349 99.0608586 -62.53283852 99.05534763 -72.07802784 99.05032361 C-91.71869248 99.03985871 -111.35934542 99.02225883 -131 99 C-130.55936117 103.15881588 -130.10327723 107.31580189 -129.64453125 111.47265625 C-129.52082153 112.64203735 -129.39711182 113.81141846 -129.26965332 115.01623535 C-127.36431187 132.0862944 -121.73613147 148.69206951 -108.4453125 160.21484375 C-92.67982865 172.78123074 -75.702339 176.59759489 -56 175 C-38.7463296 172.64568329 -24.40593362 164.60356332 -13.609375 150.984375 C-12.2830685 149.14719488 -10.98203315 147.29122919 -9.71875 145.41015625 C-8 143 -8 143 -4 139 C5.24 143.62 14.48 148.24 24 153 C20.96722602 168.1638699 5.2880662 182.46855238 -6.921875 191.0546875 C-23.43765112 201.72951841 -42.36243287 207.34636173 -62 208 C-62.83917969 208.03996094 -63.67835938 208.07992187 -64.54296875 208.12109375 C-92.62115728 208.84322568 -117.98597875 200.08054852 -138.64916992 180.80249023 C-161.42197869 158.74528472 -168.02311172 127.5763052 -168.96484375 96.93359375 C-169.48518905 63.97656593 -160.98621392 34.67644444 -140 9 C-139.42636719 8.26007813 -138.85273438 7.52015625 -138.26171875 6.7578125 C-124.19698117 -10.62243394 -101.5237032 -20.87337672 -79.6875 -23.375 C-50.72418862 -26.13270986 -22.02667201 -19.8986715 0 0 Z M-114 28 C-116.65520202 31.17932011 -118.8932103 34.43633002 -121 38 C-121.79857422 39.33417969 -121.79857422 39.33417969 -122.61328125 40.6953125 C-126.83347903 48.38172731 -131 59.01414968 -131 68 C-90.74 68 -50.48 68 -9 68 C-10.8188732 50.72070459 -12.31201133 39.06808698 -23 26 C-23.57234375 25.29101562 -24.1446875 24.58203125 -24.734375 23.8515625 C-33.55003821 14.01870738 -47.22817028 8.77842836 -60.20947266 7.84033203 C-81.81643599 6.76865511 -99.01821785 12.10495973 -114 28 Z " fill="#F1F1F1" transform="translate(2289,358)"/>
<path d="M0 0 C1.53955297 1.50188039 3.06207781 3.02152586 4.5625 4.5625 C5.18511719 5.15289062 5.80773438 5.74328125 6.44921875 6.3515625 C14.6788029 14.74758768 19.44266361 26.31280725 22 37.625 C22.15170654 38.29515137 22.30341309 38.96530273 22.4597168 39.65576172 C24.87294442 51.78061931 24.71038058 64.45260082 24.67602539 76.75952148 C24.67574235 78.20999143 24.67590352 79.66046153 24.6764679 81.1109314 C24.67675132 84.99629583 24.67092911 88.88162851 24.66389394 92.76698565 C24.65758373 96.84685776 24.6570506 100.92673083 24.65586853 105.00660706 C24.65277759 112.70908731 24.64459478 120.41155314 24.63451904 128.11402708 C24.62328789 136.89292417 24.61782992 145.67182199 24.61282361 154.45072448 C24.60240996 172.4879928 24.58409275 190.52524137 24.5625 208.5625 C12.3525 208.5625 0.1425 208.5625 -12.4375 208.5625 C-12.7675 199.9825 -13.0975 191.4025 -13.4375 182.5625 C-15.025625 184.3775 -16.61375 186.1925 -18.25 188.0625 C-32.80450996 204.11100162 -51.91238199 212.99723423 -73.4375 214.5625 C-93.31433893 214.96126681 -113.30658083 211.64900801 -128.8125 198.25 C-141.63165396 185.78868778 -148.26525073 172.07916135 -149.40234375 154.2578125 C-149.56568161 137.08918855 -145.66637173 121.00569696 -134.0625 107.875 C-133.19625 107.111875 -132.33 106.34875 -131.4375 105.5625 C-130.57318359 104.67691406 -130.57318359 104.67691406 -129.69140625 103.7734375 C-112.19984364 86.64559358 -86.58978269 83.44370593 -63.4375 80.5625 C-62.59046509 80.45703857 -61.74343018 80.35157715 -60.87072754 80.24291992 C-54.1662306 79.41223188 -47.45893873 78.60644892 -40.75 77.8125 C-39.80208588 77.6995459 -38.85417175 77.5865918 -37.87753296 77.47021484 C-35.14422057 77.14654052 -32.41019129 76.82987701 -29.67578125 76.515625 C-28.86215118 76.41896545 -28.04852112 76.32230591 -27.2102356 76.22271729 C-22.2516274 75.66315224 -17.42788508 75.4756426 -12.4375 75.5625 C-12.51957579 71.62422251 -12.63230111 67.68736113 -12.75 63.75 C-12.77255859 62.64978516 -12.79511719 61.54957031 -12.81835938 60.41601562 C-13.2331736 47.63219541 -15.98434037 34.49539788 -25.4375 25.25 C-37.63178125 15.1426595 -53.36861312 14.5030591 -68.4375 15.5625 C-80.72413713 17.2123432 -92.70681539 22.71080458 -100.75390625 32.33203125 C-104.64179628 37.59927705 -108.40154423 42.75458462 -111.4375 48.5625 C-115.50029501 47.89803963 -119.030641 46.62599163 -122.83203125 45.05859375 C-124.63510742 44.31899414 -124.63510742 44.31899414 -126.47460938 43.56445312 C-127.73311319 43.04306595 -128.99157623 42.52158034 -130.25 42 C-131.52782577 41.47419842 -132.80581896 40.94880353 -134.08398438 40.42382812 C-137.203493 39.14070948 -140.32123266 37.85346615 -143.4375 36.5625 C-134.40956629 15.52813669 -119.25687821 -1.20973429 -97.7434082 -9.83666992 C-67.76757562 -21.33078742 -25.5317703 -22.40306622 0 0 Z M-21.13964844 105.14160156 C-22.31227234 105.26883606 -23.48489624 105.39607056 -24.6930542 105.52716064 C-30.09654082 106.12441018 -35.49954328 106.7257163 -40.90185547 107.33349609 C-43.73683135 107.65179247 -46.57238624 107.96379897 -49.40869141 108.27001953 C-52.85634608 108.64229193 -56.30253695 109.02617413 -59.7480545 109.41771698 C-61.66940476 109.63333394 -63.5919865 109.83788843 -65.5145874 110.04205322 C-79.55989834 111.6647065 -94.65474963 114.10023224 -104.8125 124.8125 C-112.16843603 134.48806358 -112.47048915 144.85528961 -111.4375 156.5625 C-110.19678636 164.62713869 -105.50196122 171.21315045 -99.26171875 176.35546875 C-87.89861089 184.30375663 -75.55400933 185.80567871 -61.97265625 184.13671875 C-47.17852184 181.42418342 -33.90972968 174.56929086 -24.96484375 162.26171875 C-15.15912694 148.03300613 -12.06489858 134.0219983 -12.3125 116.9375 C-12.32152344 115.74253906 -12.33054687 114.54757812 -12.33984375 113.31640625 C-12.36318923 110.39822166 -12.39593344 107.48047224 -12.4375 104.5625 C-15.39567124 104.5625 -18.19937028 104.82160057 -21.13964844 105.14160156 Z " fill="#F2F2F2" transform="translate(1893.4375,351.4375)"/>
<path d="M0 0 C0 19.14 0 38.28 0 58 C19.47 58 38.94 58 59 58 C59 68.56 59 79.12 59 90 C39.53 90 20.06 90 0 90 C0.11989829 113.83013843 0.11989829 113.83013843 0.2578125 137.66015625 C0.31809708 147.38620875 0.37645215 157.11224412 0.421875 166.83837891 C0.45497409 173.92373224 0.49490196 181.00900981 0.54279006 188.09427917 C0.5678784 191.84056016 0.58971013 195.58679206 0.60334396 199.3331337 C0.61632684 202.87080945 0.63854929 206.40831523 0.66738319 209.94589615 C0.68055038 211.83969056 0.6843488 213.73354315 0.68769836 215.62738037 C0.72017852 234.34102926 0.72017852 234.34102926 9.875 249.875 C17.0821804 253.6905661 25.14727244 254.22104948 33.01171875 252.2421875 C38.12441231 250.50837687 41.22145464 248.88463843 45 245 C45.66 245 46.32 245 47 245 C47.33 244.01 47.66 243.02 48 242 C48.99 242 49.98 242 51 242 C52.71725555 243.94242017 54.23317166 245.84732093 55.75 247.9375 C56.63777643 249.12778649 57.52579877 250.31788961 58.4140625 251.5078125 C58.85008789 252.09852539 59.28611328 252.68923828 59.73535156 253.29785156 C61.49446986 255.6655297 63.30697722 257.98988314 65.125 260.3125 C65.68445312 261.03050781 66.24390625 261.74851562 66.8203125 262.48828125 C67.20960938 262.98714844 67.59890625 263.48601562 68 264 C65.13811689 271.25980518 56.38288174 275.53434574 49.6875 278.8125 C32.28180263 286.04857643 10.63598916 286.99432173 -7 280 C-10.5462934 278.25024574 -13.77780401 276.2863145 -17 274 C-17.886875 273.4225 -18.77375 272.845 -19.6875 272.25 C-31.95411301 260.31491707 -35.94732155 244.20200925 -36.36076355 227.57116699 C-36.36928361 225.00513227 -36.36189275 222.4390072 -36.34057617 219.87304688 C-36.33972675 218.44213377 -36.34021117 217.01121936 -36.34190369 215.58030701 C-36.34275279 211.75274497 -36.32530649 207.92547391 -36.30418181 204.09797859 C-36.28523064 200.07684999 -36.28365023 196.05571228 -36.28010559 192.0345459 C-36.27083862 184.44537369 -36.24629856 176.85633353 -36.21605712 169.26721907 C-36.18234496 160.6164872 -36.16598514 151.96574852 -36.15097082 143.31496716 C-36.11974321 125.54323701 -36.06708865 107.77162918 -36 90 C-37.11560303 90.00523682 -38.23120605 90.01047363 -39.38061523 90.01586914 C-43.50479333 90.03391775 -47.62896791 90.04543149 -51.75317383 90.05493164 C-53.54094021 90.05997218 -55.32870245 90.06680454 -57.11645508 90.07543945 C-59.68051168 90.0875173 -62.24451397 90.09323094 -64.80859375 90.09765625 C-66.01484657 90.10539818 -66.01484657 90.10539818 -67.24546814 90.11329651 C-69.16401715 90.11349215 -71.08245368 90.06201983 -73 90 C-74.88319268 88.11680732 -74.13054285 84.88069863 -74.1328125 82.375 C-74.13376923 81.71290527 -74.13472595 81.05081055 -74.13571167 80.36865234 C-74.13639326 78.96647039 -74.13454042 77.5642853 -74.13037109 76.16210938 C-74.12502246 74.00904287 -74.1303167 71.85618498 -74.13671875 69.703125 C-74.13605796 68.34374954 -74.13477679 66.9843742 -74.1328125 65.625 C-74.13168457 64.37976563 -74.13055664 63.13453125 -74.12939453 61.8515625 C-74 59 -74 59 -73 58 C-70.26129758 57.91142125 -67.54725017 57.88469293 -64.80859375 57.90234375 C-64.08224731 57.90335083 -63.35590088 57.90435791 -62.60754395 57.90539551 C-59.88417999 57.91064284 -57.16083847 57.924604 -54.4375 57.9375 C-48.353125 57.958125 -42.26875 57.97875 -36 58 C-36 41.17 -36 24.34 -36 7 C-31.52386953 5.50795651 -27.69523439 4.48684066 -23.10546875 3.7109375 C-21.82091797 3.49179687 -20.53636719 3.27265625 -19.21289062 3.046875 C-17.8710985 2.82288822 -16.52930157 2.59893023 -15.1875 2.375 C-13.82610117 2.14364483 -12.46477226 1.91187782 -11.10351562 1.6796875 C-1.19035993 0 -1.19035993 0 0 0 Z " fill="#F1F1F1" transform="translate(1651,281)"/>
<path d="M0 0 C0 19.14 0 38.28 0 58 C19.04286074 57.96038855 19.04286074 57.96038855 38.08569336 57.90991211 C40.46207637 57.9069932 42.83845988 57.90444459 45.21484375 57.90234375 C46.462052 57.89722778 47.70926025 57.89211182 48.9942627 57.88684082 C50.17170044 57.88671997 51.34913818 57.88659912 52.56225586 57.88647461 C54.1044706 57.88314369 54.1044706 57.88314369 55.67784119 57.87974548 C58 58 58 58 59 59 C59.08790975 61.29151417 59.10694038 63.58572524 59.09765625 65.87890625 C59.09515869 67.13517822 59.09266113 68.3914502 59.09008789 69.68579102 C59.08098389 71.29510498 59.07187988 72.90441895 59.0625 74.5625 C59.041875 79.656875 59.02125 84.75125 59 90 C39.53 90 20.06 90 0 90 C0.08552556 108.35913822 0.17915984 126.71817693 0.28752708 145.07719326 C0.33758826 153.60214391 0.38403179 162.12708525 0.421875 170.65209961 C0.45487932 178.08495937 0.49475683 185.51774553 0.54279006 192.95052391 C0.56797136 196.88388198 0.58977706 200.81719175 0.60334396 204.75060844 C0.61624066 208.45816709 0.63837581 212.16555939 0.66738319 215.87302589 C0.68067637 217.87155565 0.6843657 219.87014219 0.68769836 221.86871338 C0.76855659 230.61245267 1.00688241 238.51032361 6 246 C6 246.66 6 247.32 6 248 C15.29955717 253.03726013 24.29167324 254.79887644 34.6875 252 C40.07245737 249.97817535 43.98282129 245.99818496 48 242 C52.43167515 243.55369317 54.71145865 247.08402581 57.4375 250.6875 C57.90220703 251.28755859 58.36691406 251.88761719 58.84570312 252.50585938 C61.99873193 256.59995954 65.0161252 260.78141838 68 265 C57.48915054 276.56193441 43.14951975 283.24375459 27.61425781 284.13720703 C9.95330507 284.90942944 -5.86642708 283.25469915 -20.125 271.875 C-30.323068 262.44889731 -35.56801591 248.70643559 -36.12304783 234.95034218 C-36.12212604 233.86447004 -36.12120424 232.77859791 -36.12025452 231.65982056 C-36.12162918 230.40627777 -36.12300385 229.15273499 -36.12442017 227.86120605 C-36.12088174 226.48510718 -36.11724694 225.10900855 -36.11352539 223.73291016 C-36.11324311 222.27391563 -36.11340205 220.81492096 -36.1139679 219.35592651 C-36.11425427 215.40598205 -36.10838331 211.45606808 -36.10139394 207.5061307 C-36.09513386 203.37415504 -36.0945545 199.24217864 -36.09336853 195.11019897 C-36.09026304 187.29054649 -36.08206019 179.47090801 -36.07201904 171.65126169 C-36.06083362 162.74681989 -36.05534133 153.84237742 -36.05032361 144.93793035 C-36.03987693 126.62527896 -36.02229263 108.31264061 -36 90 C-37.11560303 90.00523682 -38.23120605 90.01047363 -39.38061523 90.01586914 C-43.50479333 90.03391775 -47.62896791 90.04543149 -51.75317383 90.05493164 C-53.54094021 90.05997218 -55.32870245 90.06680454 -57.11645508 90.07543945 C-59.68051168 90.0875173 -62.24451397 90.09323094 -64.80859375 90.09765625 C-66.01484657 90.10539818 -66.01484657 90.10539818 -67.24546814 90.11329651 C-69.16401715 90.11349215 -71.08245368 90.06201983 -73 90 C-74.88319268 88.11680732 -74.13054285 84.88069863 -74.1328125 82.375 C-74.13376923 81.71290527 -74.13472595 81.05081055 -74.13571167 80.36865234 C-74.13639326 78.96647039 -74.13454042 77.5642853 -74.13037109 76.16210938 C-74.12502246 74.00904287 -74.1303167 71.85618498 -74.13671875 69.703125 C-74.13605796 68.34374954 -74.13477679 66.9843742 -74.1328125 65.625 C-74.13168457 64.37976563 -74.13055664 63.13453125 -74.12939453 61.8515625 C-74 59 -74 59 -73 58 C-70.26129758 57.91142125 -67.54725017 57.88469293 -64.80859375 57.90234375 C-64.08224731 57.90335083 -63.35590088 57.90435791 -62.60754395 57.90539551 C-59.88417999 57.91064284 -57.16083847 57.924604 -54.4375 57.9375 C-48.353125 57.958125 -42.26875 57.97875 -36 58 C-36 40.84 -36 23.68 -36 6 C-30.43125 5.01 -24.8625 4.02 -19.125 3 C-17.36816895 2.68675781 -15.61133789 2.37351562 -13.80126953 2.05078125 C-12.41180794 1.80455155 -11.0223238 1.55844904 -9.6328125 1.3125 C-8.90892334 1.18294922 -8.18503418 1.05339844 -7.43920898 0.91992188 C-2.2281436 0 -2.2281436 0 0 0 Z " fill="#F1F1F1" transform="translate(2026,281)"/>
</svg>
